<svg xmlns="http://www.w3.org/2000/svg" viewBox="0 0 96.89 73.63"><defs><style>.cls-1,.cls-2{fill:#231f20;}.cls-2{fill-rule:evenodd;}</style></defs><title>chef</title><g id="Layer_2" data-name="Layer 2"><g id="outlines"><path class="cls-1" d="M79,63.33V53.74A22.35,22.35,0,0,0,71,10.5a21.17,21.17,0,0,0-3,.2,22.34,22.34,0,0,0-38.14,0,21.31,21.31,0,0,0-3-.2,22.35,22.35,0,0,0-8,43.24v9.59Zm-54.15,0v-14l-2.17-.58a16.5,16.5,0,0,1,4.27-32.43,16.21,16.21,0,0,1,3.85.46l2.29.54,1-2.12a16.49,16.49,0,0,1,29.76,0l1,2.12,2.3-.54A16.19,16.19,0,0,1,71,16.35a16.5,16.5,0,0,1,4.28,32.43l-2.17.58v14Z"/><path class="cls-2" d="M93.62,71.89,93,60.66l-1.27.5a31.12,31.12,0,0,1-11.4,2.2,35.23,35.23,0,0,1-7.16-.77,75.31,75.31,0,0,1-8-2.26c-3.23-1-6-1.94-8.49-2h-.2a7.77,7.77,0,0,0-1,.06c-4,.48-6,3.55-7,6.65-1-3.1-3-6.17-7-6.65a9,9,0,0,0-1-.06h-.13c-2.46,0-5.27.93-8.49,2-4.39,1.41-9.35,3-15.16,3a31.18,31.18,0,0,1-11.41-2.2l-1.27-.5L3.43,71.89H0v1.74H96.89V71.89ZM55.73,60.39c2.35-.3,5.3.69,8.81,1.83,4.3,1.38,9.66,3.1,15.78,3.1a32.25,32.25,0,0,0,10.86-1.86l.41,7.44H49.54c.1-2.66.91-9.88,6.19-10.51ZM5.89,63.46a32.74,32.74,0,0,0,10.85,1.86c6.11,0,11.46-1.72,15.76-3.12C36,61.07,39,60.09,41.33,60.38c5.26.64,6.07,7.86,6.18,10.5h-42Z"/><line class="cls-1" x1="73.16" y1="62.59" x2="78.99" y2="63.33"/><line class="cls-1" x1="18.99" y1="63.33" x2="24.76" y2="62.93"/></g></g></svg>