<svg xmlns="http://www.w3.org/2000/svg" viewBox="0 0 384 320.27"><defs><style>.cls-1{fill:#212121;}.cls-2{fill:#231f20;}</style></defs><title>cookbook</title><g id="Layer_2" data-name="Layer 2"><g id="Layer_1-2" data-name="Layer 1"><path class="cls-1" d="M27.33,12.39C54.05,1.08,83.33-2,111.63,1.2c30.87,3.51,60.63,14.51,84.63,30.51L192,38.1l4.26-6.39a7.65,7.65,0,0,1,3.42,6.44V281.4a7.68,7.68,0,0,1-12,6.35,172.8,172.8,0,0,0-75.85-27.46,168.53,168.53,0,0,0-79.29,9.85h0a7.67,7.67,0,0,1-9.91-4.44,7.46,7.46,0,0,1-.51-2.88V19.67a7.69,7.69,0,0,1,5.21-7.28ZM110,16.44C85.58,13.67,60.51,16,37.48,24.82V252.19a184.3,184.3,0,0,1,76-7.14,189.86,189.86,0,0,1,70.81,22.67V42.28A179.06,179.06,0,0,0,110,16.44Z"/><path class="cls-1" d="M346.52,24.82c-23-8.84-48.1-11.15-72.47-8.38a179.11,179.11,0,0,0-74.37,25.84V267.72a189.86,189.86,0,0,1,70.81-22.67,184.28,184.28,0,0,1,76,7.14V24.82ZM272.37,1.2C300.67-2,330,1.08,356.67,12.39a7.69,7.69,0,0,1,5.21,7.28V262.83a7.68,7.68,0,0,1-10.42,7.32h0a168.59,168.59,0,0,0-79.3-9.85,172.84,172.84,0,0,0-75.85,27.46,7.68,7.68,0,0,1-12-6.35V38.15a7.7,7.7,0,0,1,3.42-6.44L192,38.1l-4.26-6.39C211.74,15.71,241.5,4.71,272.37,1.2Z"/><path class="cls-1" d="M365.91,52.19a7.66,7.66,0,1,0-6,14.1L368.64,70V288.56L349,281.07a162.82,162.82,0,0,0-76.36-9.38A164.87,164.87,0,0,0,200,298l-8,5.34L184,298a164.87,164.87,0,0,0-72.67-26.33A162.84,162.84,0,0,0,35,281.07l-19.6,7.49V70l8.73-3.73a7.66,7.66,0,1,0-6-14.1L5.18,57.72A7.68,7.68,0,0,0,0,65V299.56a7.43,7.43,0,0,0,.51,2.88,7.67,7.67,0,0,0,9.91,4.44h0l30-11.46a147.6,147.6,0,0,1,69.22-8.48,149.33,149.33,0,0,1,65.83,23.87l12.13,8.08a7.67,7.67,0,0,0,8.66.1l12.27-8.18a149.37,149.37,0,0,1,65.83-23.87,147.6,147.6,0,0,1,69.22,8.48l29.65,11.32a7.57,7.57,0,0,0,3.09.65A7.68,7.68,0,0,0,384,299.7V65.12a7.68,7.68,0,0,0-4.66-7.2l-3,7.06,3-7.05Z"/><path class="cls-2" d="M330.59,140.86a57.9,57.9,0,0,1-31.41,51.46v2.56a3.84,3.84,0,0,1-3.84,3.84H250.11a3.84,3.84,0,0,1-3.84-3.84v-2.56a57.85,57.85,0,0,1-31.41-51.46A3.84,3.84,0,0,1,218.7,137H326.75a3.84,3.84,0,0,1,3.84,3.84Zm-15.56,27a49.84,49.84,0,0,0,7.73-23.17H222.68a49.84,49.84,0,0,0,7.73,23.17,50.48,50.48,0,0,0,21.09,18.48,3.85,3.85,0,0,1,2.45,3.58V191H291.5v-1a3.86,3.86,0,0,1,2.23-3.55l1.61,3.49-1.61-3.48A50.43,50.43,0,0,0,315,167.87Z"/><path class="cls-2" d="M263.1,105.78c-9.83-3-14.58-8-19.25-13-3.67-3.91-7.27-7.75-14-10l-10,18.91c5.53,4,10.66,4.74,15.83,5.52,6.89,1,13.83,2.09,21.9,8.84l5.45-10.33ZM249.43,87.54c4.53,4.82,9.15,9.74,19.92,11.9a3.67,3.67,0,0,1,1.21.4,3.83,3.83,0,0,1,1.61,5.18h0l-9.93,18.83a3.75,3.75,0,0,1-.83,1.2,3.85,3.85,0,0,1-5.43,0h0c-7.93-8.1-14.68-9.12-21.37-10.13-7-1-13.89-2.1-22-9.09a3.82,3.82,0,0,1-1-4.78h0l12.77-24.22a3.85,3.85,0,0,1,4.38-2.19h0C239.62,77.09,244.48,82.26,249.43,87.54Z"/><path class="cls-2" d="M274.45,108.83a3.84,3.84,0,1,0-3.46,6.86,43,43,0,0,1,6,3.66,3.84,3.84,0,1,0,4.53-6.2,50.84,50.84,0,0,0-7.09-4.32ZM291.65,141a3.84,3.84,0,0,0,7.37-2.16l0-.16,0-.16-.05-.16-.05-.16,0-.15-.05-.16-.05-.15-.05-.16-.05-.16,0-.15-.05-.16-.05-.15-.05-.15-.06-.16-.05-.15,0-.16-.05-.15-.05-.15-.06-.16-.05-.15-.06-.15,0-.15-.06-.15-.05-.16-.06-.15-.05-.15-.06-.15-.06-.15-.05-.15-.06-.14-.06-.15-.06-.15-.06-.15-.06-.15-.06-.15-.06-.14-.06-.15L297,133l-.06-.15-.06-.14,0-.07a3.84,3.84,0,1,0-7.06,3l0,0,0,.13.05.12.05.13.05.13.06.12.05.13,0,.12.05.13.05.13.05.13.05.13,0,.13.05.13,0,.13.05.13,0,.13.05.12.05.14,0,.13,0,.13.05.13,0,.13.05.14,0,.13.05.13,0,.14.05.13,0,.13.05.14,0,.13,0,.14,0,.13,0,.14,0,.14.05.13,0,.14,0,.14,0,.13,0,.14Z"/><path class="cls-2" d="M272.67,115.31a3.84,3.84,0,1,0-4.1,6.49,22.39,22.39,0,0,1,5,4.23,3.84,3.84,0,0,0,5.8-5A30,30,0,0,0,272.67,115.31Z"/><path class="cls-2" d="M269,121.88a3.85,3.85,0,0,0-4.11,6.5,7.42,7.42,0,0,1,3.25,3.9,3.84,3.84,0,1,0,7.2-2.68A15.18,15.18,0,0,0,269,121.88Z"/><path class="cls-2" d="M52.46,60.76a3.83,3.83,0,0,0,3,7.05c17.67-7.57,37.17-9.63,56.07-7.48A129.42,129.42,0,0,1,168,80.67a3.84,3.84,0,0,0,4.26-6.39,137.44,137.44,0,0,0-59.85-21.57C92.24,50.42,71.42,52.64,52.46,60.76Z"/><path class="cls-2" d="M52.46,89.61a3.83,3.83,0,0,0,3,7C73.13,89.1,92.63,87,111.53,89.18A129.55,129.55,0,0,1,168,109.53a3.84,3.84,0,0,0,4.26-6.39,137.32,137.32,0,0,0-59.85-21.58C92.24,79.27,71.42,81.5,52.46,89.61Z"/><path class="cls-2" d="M52.46,118.47a3.83,3.83,0,0,0,3,7c17.67-7.57,37.17-9.63,56.07-7.48A129.43,129.43,0,0,1,168,138.39a3.84,3.84,0,0,0,4.26-6.39,137.32,137.32,0,0,0-59.85-21.58C92.24,108.13,71.42,110.35,52.46,118.47Z"/><path class="cls-2" d="M52.46,147.33a3.83,3.83,0,0,0,3,7c17.67-7.57,37.17-9.63,56.07-7.49A129.55,129.55,0,0,1,168,167.24a3.84,3.84,0,0,0,4.26-6.39,137.45,137.45,0,0,0-59.85-21.58C92.24,137,71.42,139.21,52.46,147.33Z"/><path class="cls-2" d="M52.46,176.18a3.83,3.83,0,0,0,3,7c17.67-7.56,37.17-9.63,56.07-7.48A129.55,129.55,0,0,1,168,196.1a3.84,3.84,0,0,0,4.26-6.39,137.32,137.32,0,0,0-59.85-21.58C92.24,165.84,71.42,168.07,52.46,176.18Z"/><path class="cls-2" d="M52.46,205a3.83,3.83,0,0,0,3,7.05c17.67-7.57,37.17-9.63,56.07-7.48A129.42,129.42,0,0,1,168,225a3.84,3.84,0,0,0,4.26-6.39A137.44,137.44,0,0,0,112.37,197C92.24,194.7,71.42,196.92,52.46,205Z"/></g></g></svg>