<?xml version="1.0" standalone="no"?>
<!DOCTYPE svg PUBLIC "-//W3C//DTD SVG 20010904//EN"
 "http://www.w3.org/TR/2001/REC-SVG-20010904/DTD/svg10.dtd">
<svg version="1.0" xmlns="http://www.w3.org/2000/svg"
 width="600.000000pt" height="600.000000pt" viewBox="0 0 600.000000 600.000000"
 preserveAspectRatio="xMidYMid meet">
<metadata>
Created by potrace 1.11, written by Peter Selinger 2001-2013
</metadata>
<g transform="translate(0.000000,600.000000) scale(0.100000,-0.100000)"
fill="#000000" stroke="none">
<path d="M2880 5273 c-195 -31 -328 -72 -470 -143 -191 -96 -376 -253 -501
-426 -55 -75 -64 -83 -88 -79 -30 6 -276 7 -306 1 -11 -2 -54 -9 -95 -16 -229
-38 -467 -152 -664 -320 -289 -246 -467 -634 -469 -1020 -1 -186 23 -328 82
-488 122 -335 369 -605 701 -769 l105 -51 0 -290 c0 -284 0 -291 -20 -294 -30
-6 -241 -2 -315 6 -148 16 -276 46 -448 105 l-142 49 -1 -32 c-1 -17 -2 -51
-4 -76 -1 -25 -5 -97 -9 -160 -3 -63 -9 -160 -12 -215 -3 -55 -7 -122 -8 -150
l-3 -50 -106 -3 -107 -3 0 -54 0 -55 3000 0 3000 0 0 55 0 55 -100 0 c-55 0
-100 3 -101 8 -1 9 -5 73 -13 202 -3 58 -8 150 -12 205 -11 196 -12 220 -13
247 l-1 27 -97 -35 c-225 -82 -439 -125 -643 -127 l-125 -2 -2 297 -2 297 22
7 c42 13 172 79 232 118 351 229 579 591 630 1002 9 72 9 228 1 304 -57 507
-390 945 -863 1134 -88 35 -235 75 -303 82 -19 2 -47 6 -62 9 -36 8 -234 8
-290 0 -43 -6 -43 -6 -72 40 -16 25 -34 51 -40 58 -6 7 -27 32 -47 57 -156
194 -388 349 -648 433 -62 21 -132 39 -155 42 -22 3 -52 8 -66 11 -30 7 -314
13 -350 7z m340 -373 c326 -61 586 -264 746 -582 30 -60 58 -108 62 -108 5 0
31 7 58 15 428 126 868 -17 1133 -369 78 -103 158 -273 176 -376 3 -14 9 -47
14 -75 21 -113 5 -323 -34 -450 -76 -243 -250 -458 -470 -581 -92 -52 -149
-75 -272 -109 l-103 -28 0 -409 c0 -385 -1 -409 -17 -404 -10 3 -65 17 -122
31 -57 14 -190 53 -295 87 -362 115 -433 131 -586 132 l-135 1 -78 -37 c-109
-52 -183 -131 -245 -259 l-47 -97 -47 99 c-63 128 -136 206 -246 257 -71 33
-85 36 -187 38 -129 4 -222 -14 -445 -83 -314 -99 -457 -140 -507 -149 l-33
-5 -1 378 c-1 208 -1 387 0 399 2 18 -13 24 -118 53 -403 110 -687 415 -757
811 -26 153 -19 306 23 449 128 444 534 747 993 740 90 -1 273 -30 351 -54 15
-5 28 13 73 105 86 175 183 294 327 400 117 88 318 170 453 186 28 4 53 8 54
9 9 8 223 -4 282 -15z m-599 -3360 c173 -53 289 -261 315 -562 l6 -68 -1301 0
-1301 0 4 88 c7 127 18 324 20 339 4 24 14 24 120 -6 117 -33 239 -57 361 -70
78 -9 349 -6 430 3 200 25 429 80 705 169 389 127 512 147 641 107z m1064 -5
c33 -8 69 -17 79 -20 27 -6 272 -83 321 -100 130 -46 395 -111 570 -140 125
-20 376 -26 529 -12 99 9 257 41 362 72 94 29 101 29 101 13 0 -7 3 -62 7
-123 3 -60 9 -156 12 -212 l5 -103 -1302 0 -1301 0 6 68 c9 94 14 127 38 212
22 80 76 200 90 200 4 0 8 6 8 13 0 20 80 93 129 118 24 12 60 26 80 30 54 10
198 1 266 -16z"/>
</g>
</svg>
