<svg xmlns="http://www.w3.org/2000/svg" viewBox="0 0 582.28 76.01"><defs><style>.cls-1,.cls-2{fill:#231f20;}.cls-2{fill-rule:evenodd;}.cls-3{fill:#0063a7;}</style></defs><title>Asset 3</title><g id="Layer_2" data-name="Layer 2"><g id="outlines"><path class="cls-1" d="M79,65.05V55.46a22.36,22.36,0,0,0-8-43.25,22.8,22.8,0,0,0-3,.2,22.35,22.35,0,0,0-38.14,0,23,23,0,0,0-3-.2,22.36,22.36,0,0,0-8,43.25v9.59Zm-54.15,0v-14l-2.17-.58a16.5,16.5,0,0,1,4.27-32.43,16.73,16.73,0,0,1,3.85.45l2.29.55,1-2.13a16.5,16.5,0,0,1,29.76,0l1,2.13,2.3-.55A16.71,16.71,0,0,1,71,18.07,16.5,16.5,0,0,1,75.31,50.5l-2.17.58v14Z"/><path class="cls-2" d="M93.62,73.6,93,62.38l-1.27.49a30.93,30.93,0,0,1-11.4,2.21,34.52,34.52,0,0,1-7.16-.78,77.8,77.8,0,0,1-8-2.25c-3.23-1-6-1.94-8.49-2h-.2a7.77,7.77,0,0,0-1,.06c-4,.48-6,3.55-7,6.65-1-3.1-3-6.17-7-6.65a9,9,0,0,0-1-.06h-.13c-2.46,0-5.27.93-8.49,2-4.39,1.41-9.35,3-15.16,3A31,31,0,0,1,5.33,62.87l-1.27-.49L3.43,73.6H0v1.75H96.89V73.6ZM55.73,62.11c2.35-.3,5.3.69,8.81,1.83,4.3,1.37,9.66,3.1,15.78,3.1a32.25,32.25,0,0,0,10.86-1.86l.41,7.43H49.54c.1-2.65.91-9.87,6.19-10.5ZM5.89,65.18A32.74,32.74,0,0,0,16.74,67c6.11,0,11.46-1.73,15.76-3.12C36,62.78,39,61.81,41.33,62.1c5.26.64,6.07,7.86,6.18,10.5h-42Z"/><line class="cls-1" x1="73.16" y1="64.3" x2="78.99" y2="65.05"/><line class="cls-1" x1="18.99" y1="65.05" x2="24.76" y2="64.64"/><path class="cls-3" d="M124.81,33.82h15.06v10.6H124.81V75.06H113.15V.85H144v10.6H124.81Z"/><path class="cls-3" d="M159.27,18.66C159.27,6.79,165.53,0,177,0s17.7,6.79,17.7,18.66V57.25c0,11.87-6.25,18.66-17.7,18.66s-17.71-6.79-17.71-18.66ZM170.93,58c0,5.3,2.34,7.32,6,7.32s6-2,6-7.32V17.92c0-5.3-2.33-7.32-6-7.32s-6,2-6,7.32Z"/><path class="cls-3" d="M246.63,47.39v9.86c0,11.87-5.94,18.66-17.39,18.66s-17.38-6.79-17.38-18.66V18.66C211.86,6.79,217.79,0,229.24,0s17.39,6.79,17.39,18.66v7.21h-11V17.92c0-5.3-2.33-7.32-6-7.32s-6,2-6,7.32V58c0,5.3,2.33,7.21,6,7.21s6-1.91,6-7.21V47.39Z"/><path class="cls-3" d="M275.47.85V58.1c0,5.3,2.33,7.21,6,7.21s6-1.91,6-7.21V.85h11V57.36c0,11.87-5.94,18.65-17.39,18.65S263.8,69.23,263.8,57.36V.85Z"/><path class="cls-3" d="M332.82,0C344.17,0,350,6.79,350,18.66V21H339V17.92c0-5.3-2.12-7.32-5.83-7.32s-5.83,2-5.83,7.32c0,15.26,22.79,18.13,22.79,39.33,0,11.87-5.93,18.66-17.38,18.66s-17.39-6.79-17.39-18.66V52.69h11V58c0,5.3,2.34,7.21,6,7.21s6-1.91,6-7.21c0-15.26-22.79-18.13-22.79-39.33C315.65,6.79,321.48,0,332.82,0Z"/><path class="cls-3" d="M428.24,47.39v9.86c0,11.87-5.94,18.66-17.39,18.66s-17.39-6.79-17.39-18.66V18.66C393.46,6.79,399.4,0,410.85,0s17.39,6.79,17.39,18.66v7.21h-11V17.92c0-5.3-2.33-7.32-6-7.32s-6,2-6,7.32V58c0,5.3,2.33,7.21,6,7.21s6-1.91,6-7.21V47.39Z"/><path class="cls-3" d="M457.6,75.06H445.94V.85H457.6v31.8h13.26V.85h11.87V75.06H470.86V43.25H457.6Z"/><path class="cls-3" d="M513.48,32.12h16V42.73h-16V64.46h20.14v10.6H501.81V.85h31.81v10.6H513.48Z"/><path class="cls-3" d="M563.09,33.82h15.06v10.6H563.09V75.06H551.43V.85h30.85v10.6H563.09Z"/></g></g></svg>